<svg width="177" height="265" viewBox="0 0 177 265" fill="none" xmlns="http://www.w3.org/2000/svg">
<path d="M90.95 119.6C90.95 118.523 90.077 117.65 89 117.65C87.923 117.65 87.05 118.523 87.05 119.6H90.95ZM87.05 140.4C87.05 141.477 87.923 142.35 89 142.35C90.077 142.35 90.95 141.477 90.95 140.4H87.05ZM99.4 131.95C100.477 131.95 101.35 131.077 101.35 130C101.35 128.923 100.477 128.05 99.4 128.05V131.95ZM78.6 128.05C77.523 128.05 76.65 128.923 76.65 130C76.65 131.077 77.523 131.95 78.6 131.95V128.05ZM24.6548 3.95H152.345V0.05H24.6548V3.95ZM173.05 24.6548V239.875H176.95V24.6548H173.05ZM152.345 260.58H24.6548V264.48H152.345V260.58ZM3.95 239.875V24.6548H0.05V239.875H3.95ZM24.6548 260.58C13.2198 260.58 3.95 251.31 3.95 239.875H0.05C0.05 253.464 11.0659 264.48 24.6548 264.48V260.58ZM173.05 239.875C173.05 251.31 163.78 260.58 152.345 260.58V264.48C165.934 264.48 176.95 253.464 176.95 239.875H173.05ZM152.345 3.95C163.78 3.95 173.05 13.2198 173.05 24.6548H176.95C176.95 11.0659 165.934 0.05 152.345 0.05V3.95ZM24.6548 0.05C11.0659 0.05 0.05 11.0659 0.05 24.6548H3.95C3.95 13.2198 13.2198 3.95 24.6548 3.95V0.05ZM89 157.95C104.436 157.95 116.95 145.436 116.95 130H113.05C113.05 143.282 102.282 154.05 89 154.05V157.95ZM116.95 130C116.95 114.564 104.436 102.05 89 102.05V105.95C102.282 105.95 113.05 116.718 113.05 130H116.95ZM89 102.05C73.5636 102.05 61.05 114.564 61.05 130H64.95C64.95 116.718 75.7175 105.95 89 105.95V102.05ZM61.05 130C61.05 145.436 73.5636 157.95 89 157.95V154.05C75.7176 154.05 64.95 143.282 64.95 130H61.05ZM87.05 119.6V140.4H90.95V119.6H87.05ZM99.4 128.05H78.6V131.95H99.4V128.05Z" fill="white"/>
</svg>
