<svg width="42" height="42" viewBox="0 0 42 42" fill="none" xmlns="http://www.w3.org/2000/svg">
<g clip-path="url(#clip0_113_26)">
<path d="M3.9375 10.5C3.9375 11.5443 4.35234 12.5458 5.09077 13.2842C5.8292 14.0227 6.8307 14.4375 7.875 14.4375C8.9193 14.4375 9.9208 14.0227 10.6592 13.2842C11.3977 12.5458 11.8125 11.5443 11.8125 10.5C11.8125 9.4557 11.3977 8.4542 10.6592 7.71577C9.9208 6.97734 8.9193 6.5625 7.875 6.5625C6.8307 6.5625 5.8292 6.97734 5.09077 7.71577C4.35234 8.4542 3.9375 9.4557 3.9375 10.5Z" stroke="white" stroke-width="2.625" stroke-linecap="round" stroke-linejoin="round"/>
<path d="M7.875 17.0625C6.13452 17.0625 4.46532 17.7539 3.23461 18.9845C2.00391 20.2153 1.3125 21.8845 1.3125 23.625V27.5625H3.9375L5.25 38.0625H10.5" stroke="white" stroke-width="2.625" stroke-linecap="round" stroke-linejoin="round"/>
<path d="M30.1875 10.5C30.1875 11.5443 30.6024 12.5458 31.3408 13.2842C32.0793 14.0227 33.0808 14.4375 34.125 14.4375C35.1692 14.4375 36.1707 14.0227 36.9092 13.2842C37.6476 12.5458 38.0625 11.5443 38.0625 10.5C38.0625 9.4557 37.6476 8.4542 36.9092 7.71577C36.1707 6.97734 35.1692 6.5625 34.125 6.5625C33.0808 6.5625 32.0793 6.97734 31.3408 7.71577C30.6024 8.4542 30.1875 9.4557 30.1875 10.5Z" stroke="white" stroke-width="2.625" stroke-linecap="round" stroke-linejoin="round"/>
<path d="M34.125 17.0625C35.8655 17.0625 37.5347 17.7539 38.7655 18.9845C39.9961 20.2153 40.6875 21.8845 40.6875 23.625V27.5625H38.0625L36.75 38.0625H31.5" stroke="white" stroke-width="2.625" stroke-linecap="round" stroke-linejoin="round"/>
<path d="M15.75 6.5625C15.75 7.95489 16.3031 9.29024 17.2877 10.2748C18.2723 11.2594 19.6077 11.8125 21 11.8125C22.3923 11.8125 23.7277 11.2594 24.7123 10.2748C25.6968 9.29024 26.25 7.95489 26.25 6.5625C26.25 5.17011 25.6968 3.83476 24.7123 2.85019C23.7277 1.86562 22.3923 1.3125 21 1.3125C19.6077 1.3125 18.2723 1.86562 17.2877 2.85019C16.3031 3.83476 15.75 5.17011 15.75 6.5625Z" stroke="white" stroke-width="2.625" stroke-linecap="round" stroke-linejoin="round"/>
<path d="M30.1875 23.625C30.1875 21.1883 29.2196 18.8515 27.4965 17.1285C25.7735 15.4055 23.4367 14.4375 21 14.4375C18.5633 14.4375 16.2265 15.4055 14.5035 17.1285C12.7805 18.8515 11.8125 21.1883 11.8125 23.625V27.5625H15.75L17.0625 40.6875H24.9375L26.25 27.5625H30.1875V23.625Z" stroke="white" stroke-width="2.625" stroke-linecap="round" stroke-linejoin="round"/>
</g>
<defs>
<clipPath id="clip0_113_26">
<rect width="42" height="42" fill="white"/>
</clipPath>
</defs>
</svg>
