<svg width="42" height="42" viewBox="0 0 42 42" fill="none" xmlns="http://www.w3.org/2000/svg">
<g clip-path="url(#clip0_115_46)">
<path d="M28.5 31.5V37.5C28.5 38.2956 28.1839 39.0588 27.6213 39.6213C27.0587 40.1838 26.2957 40.5 25.5 40.5H4.5C3.70434 40.5 2.94129 40.1838 2.37868 39.6213C1.81607 39.0588 1.5 38.2956 1.5 37.5V4.5C1.5 3.70434 1.81607 2.94129 2.37868 2.37868C2.94129 1.81607 3.70434 1.5 4.5 1.5H25.5C26.2957 1.5 27.0587 1.81607 27.6213 2.37868C28.1839 2.94129 28.5 3.70434 28.5 4.5V10.5" stroke="#F39F5A" stroke-width="3" stroke-linecap="round" stroke-linejoin="round"/>
<path d="M19.5 21H40.5" stroke="#F39F5A" stroke-width="3" stroke-linecap="round" stroke-linejoin="round"/>
<path d="M34.5 15L40.5 21L34.5 27" stroke="#F39F5A" stroke-width="3" stroke-linecap="round" stroke-linejoin="round"/>
</g>
<defs>
<clipPath id="clip0_115_46">
<rect width="42" height="42" fill="white"/>
</clipPath>
</defs>
</svg>
