<svg width="24" height="24" viewBox="0 0 24 24" fill="none" xmlns="http://www.w3.org/2000/svg">
<path d="M17.9892 5.28205C19.3945 6.53576 20.4039 8.22382 20.8066 10.1354L23.4204 8.3052C22.5708 5.67727 20.8394 3.44591 18.575 1.95997L17.9892 5.28205Z" fill="#D9D9D9"/>
<path d="M17.9892 5.28205C19.3945 6.53576 20.4039 8.22382 20.8066 10.1354L23.4204 8.3052C22.5708 5.67727 20.8394 3.44591 18.575 1.95997L17.9892 5.28205Z" fill="url(#paint0_linear_10_16)" fill-opacity="0.65"/>
<path d="M17.6559 1.4138C15.9707 0.511598 14.0451 0 12 0C10.9824 0 9.99437 0.126665 9.05083 0.365088L10.9391 3.06187C11.2871 3.02101 11.6411 3 12 3C13.8923 3 15.6482 3.584 17.0973 4.5816L17.6559 1.4138Z" fill="#D9D9D9"/>
<path d="M17.6559 1.4138C15.9707 0.511598 14.0451 0 12 0C10.9824 0 9.99437 0.126665 9.05083 0.365088L10.9391 3.06187C11.2871 3.02101 11.6411 3 12 3C13.8923 3 15.6482 3.584 17.0973 4.5816L17.6559 1.4138Z" fill="url(#paint1_linear_10_16)" fill-opacity="0.65"/>
<path d="M21 12C21 11.745 20.9894 11.4924 20.9686 11.2428L23.7017 9.32905C23.8969 10.188 24 11.082 24 12C24 14.0777 23.4719 16.0322 22.5427 17.7364L19.3637 17.1758C20.3946 15.7118 21 13.9266 21 12Z" fill="#D9D9D9"/>
<path d="M21 12C21 11.745 20.9894 11.4924 20.9686 11.2428L23.7017 9.32905C23.8969 10.188 24 11.082 24 12C24 14.0777 23.4719 16.0322 22.5427 17.7364L19.3637 17.1758C20.3946 15.7118 21 13.9266 21 12Z" fill="url(#paint2_linear_10_16)" fill-opacity="0.65"/>
<path d="M18.6493 18.0653L21.9878 18.6539C20.7058 20.5744 18.8847 22.1042 16.7408 23.0272L14.9702 20.4984C16.3935 20.0009 17.6538 19.156 18.6493 18.0653Z" fill="#D9D9D9"/>
<path d="M18.6493 18.0653L21.9878 18.6539C20.7058 20.5744 18.8847 22.1042 16.7408 23.0272L14.9702 20.4984C16.3935 20.0009 17.6538 19.156 18.6493 18.0653Z" fill="url(#paint3_linear_10_16)" fill-opacity="0.65"/>
<path d="M0.704083 7.94035C0.248334 9.20829 0 10.5751 0 12C0 13.2892 0.203294 14.5309 0.579573 15.6948L3.19339 13.8646C3.06665 13.263 3 12.6393 3 12C3 10.7477 3.25576 9.55519 3.71789 8.47177L0.704083 7.94035Z" fill="#D9D9D9"/>
<path d="M0.704083 7.94035C0.248334 9.20829 0 10.5751 0 12C0 13.2892 0.203294 14.5309 0.579573 15.6948L3.19339 13.8646C3.06665 13.263 3 12.6393 3 12C3 10.7477 3.25576 9.55519 3.71789 8.47177L0.704083 7.94035Z" fill="url(#paint4_linear_10_16)" fill-opacity="0.65"/>
<path d="M4.18207 7.53819L1.09121 6.99319C2.44504 4.04833 4.95625 1.74571 8.04217 0.668008L9.85511 3.25716C7.42995 3.85009 5.39026 5.42577 4.18207 7.53819Z" fill="#D9D9D9"/>
<path d="M4.18207 7.53819L1.09121 6.99319C2.44504 4.04833 4.95625 1.74571 8.04217 0.668008L9.85511 3.25716C7.42995 3.85009 5.39026 5.42577 4.18207 7.53819Z" fill="url(#paint5_linear_10_16)" fill-opacity="0.65"/>
<path d="M3.47373 14.8891L0.939805 16.6633C1.99941 19.1734 3.88851 21.2476 6.26363 22.5427L6.82417 19.3637C5.27906 18.2757 4.09177 16.7137 3.47373 14.8891Z" fill="#D9D9D9"/>
<path d="M3.47373 14.8891L0.939805 16.6633C1.99941 19.1734 3.88851 21.2476 6.26363 22.5427L6.82417 19.3637C5.27906 18.2757 4.09177 16.7137 3.47373 14.8891Z" fill="url(#paint6_linear_10_16)" fill-opacity="0.65"/>
<path d="M12 24C10.2927 24 8.66865 23.6435 7.19829 23.0007L7.73978 19.9298C9.00799 20.6126 10.4588 21 12 21C12.6703 21 13.3235 20.9267 13.952 20.7877L15.7767 23.3936C14.5892 23.787 13.3195 24 12 24Z" fill="#D9D9D9"/>
<path d="M12 24C10.2927 24 8.66865 23.6435 7.19829 23.0007L7.73978 19.9298C9.00799 20.6126 10.4588 21 12 21C12.6703 21 13.3235 20.9267 13.952 20.7877L15.7767 23.3936C14.5892 23.787 13.3195 24 12 24Z" fill="url(#paint7_linear_10_16)" fill-opacity="0.65"/>
<defs>
<linearGradient id="paint0_linear_10_16" x1="24" y1="20.7509" x2="1.19952e-06" y2="3.75087" gradientUnits="userSpaceOnUse">
<stop stop-color="#81249C"/>
<stop offset="1" stop-color="#BB2176"/>
</linearGradient>
<linearGradient id="paint1_linear_10_16" x1="24" y1="20.7509" x2="1.19952e-06" y2="3.75087" gradientUnits="userSpaceOnUse">
<stop stop-color="#81249C"/>
<stop offset="1" stop-color="#BB2176"/>
</linearGradient>
<linearGradient id="paint2_linear_10_16" x1="24" y1="20.7509" x2="1.19952e-06" y2="3.75087" gradientUnits="userSpaceOnUse">
<stop stop-color="#81249C"/>
<stop offset="1" stop-color="#BB2176"/>
</linearGradient>
<linearGradient id="paint3_linear_10_16" x1="24" y1="20.7509" x2="1.19952e-06" y2="3.75087" gradientUnits="userSpaceOnUse">
<stop stop-color="#81249C"/>
<stop offset="1" stop-color="#BB2176"/>
</linearGradient>
<linearGradient id="paint4_linear_10_16" x1="24" y1="20.7509" x2="1.19952e-06" y2="3.75087" gradientUnits="userSpaceOnUse">
<stop stop-color="#81249C"/>
<stop offset="1" stop-color="#BB2176"/>
</linearGradient>
<linearGradient id="paint5_linear_10_16" x1="24" y1="20.7509" x2="1.19952e-06" y2="3.75087" gradientUnits="userSpaceOnUse">
<stop stop-color="#81249C"/>
<stop offset="1" stop-color="#BB2176"/>
</linearGradient>
<linearGradient id="paint6_linear_10_16" x1="24" y1="20.7509" x2="1.19952e-06" y2="3.75087" gradientUnits="userSpaceOnUse">
<stop stop-color="#81249C"/>
<stop offset="1" stop-color="#BB2176"/>
</linearGradient>
<linearGradient id="paint7_linear_10_16" x1="24" y1="20.7509" x2="1.19952e-06" y2="3.75087" gradientUnits="userSpaceOnUse">
<stop stop-color="#81249C"/>
<stop offset="1" stop-color="#BB2176"/>
</linearGradient>
</defs>
</svg>