<svg width="42" height="42" viewBox="0 0 42 42" fill="none" xmlns="http://www.w3.org/2000/svg">
<path d="M31.0397 6.125C30.5567 4.354 29.036 3.07475 27.1259 2.93738C24.8894 2.77638 21.5819 2.625 17.0625 2.625C12.5702 2.625 9.27675 2.77463 7.04112 2.93475C4.80375 3.094 3.09312 4.80375 2.93387 7.042C2.77375 9.27763 2.625 12.572 2.625 17.0625C2.625 21.5819 2.77725 24.8885 2.93738 27.125C3.07475 29.0351 4.35487 30.5568 6.125 31.0389" stroke="white" stroke-width="2.92688" stroke-linecap="round" stroke-linejoin="round"/>
<path d="M10.81 14.9161C10.9692 12.6788 12.679 10.9699 14.9172 10.8098C17.152 10.6488 20.4464 10.5 24.9377 10.5C29.4291 10.5 32.7226 10.6496 34.9582 10.8098C37.1965 10.969 38.9062 12.6788 39.0655 14.917C39.2256 17.1526 39.3752 20.447 39.3752 24.9375C39.3752 29.4289 39.2256 32.7224 39.0655 34.9589C38.9062 37.1963 37.1965 38.9051 34.9582 39.0653C32.7226 39.2254 29.4282 39.375 24.9377 39.375C20.4464 39.375 17.1529 39.2254 14.9164 39.0653C12.679 38.906 10.9701 37.1963 10.81 34.958C10.649 32.7233 10.5002 29.4289 10.5002 24.9375C10.5002 20.4461 10.6499 17.1526 10.81 14.9161Z" stroke="white" stroke-width="2.92688" stroke-linecap="round" stroke-linejoin="round"/>
<path d="M39.2403 31.8404C37.2672 29.9906 35.8453 28.7586 34.8583 27.9519C33.6876 26.9938 32.1441 26.8546 30.8832 27.6955C29.912 28.343 28.5785 29.3318 26.8363 30.8271C24.2463 28.35 22.4613 26.7934 21.2906 25.8353C20.1198 24.8771 18.5763 24.7389 17.3155 25.5789C15.898 26.5239 13.7078 28.1969 10.606 31.1071" stroke="white" stroke-width="2.92688" stroke-linecap="round" stroke-linejoin="round"/>
<path d="M28 19.25C28 19.9462 28.2766 20.6139 28.7688 21.1062C29.2611 21.5985 29.9288 21.875 30.625 21.875C31.3212 21.875 31.9889 21.5985 32.4812 21.1062C32.9734 20.6139 33.25 19.9462 33.25 19.25C33.25 18.5538 32.9734 17.8861 32.4812 17.3939C31.9889 16.9016 31.3212 16.625 30.625 16.625C29.9288 16.625 29.2611 16.9016 28.7688 17.3939C28.2766 17.8861 28 18.5538 28 19.25Z" stroke="white" stroke-width="2.92688" stroke-linecap="round" stroke-linejoin="round"/>
</svg>
