<svg width="63" height="63" viewBox="0 0 63 63" fill="none" xmlns="http://www.w3.org/2000/svg">
<path d="M47.2217 13.8654C50.9105 17.1564 53.5602 21.5875 54.6174 26.6055L61.4786 21.8012C59.2485 14.9028 54.7035 9.0455 48.7593 5.14492L47.2217 13.8654Z" fill="#D9D9D9"/>
<path d="M47.2217 13.8654C50.9105 17.1564 53.5602 21.5875 54.6174 26.6055L61.4786 21.8012C59.2485 14.9028 54.7035 9.0455 48.7593 5.14492L47.2217 13.8654Z" fill="url(#paint0_linear_24_29)" fill-opacity="0.65"/>
<path d="M46.3467 3.71121C41.9232 1.34294 36.8684 0 31.5 0C28.8288 0 26.2352 0.332495 23.7584 0.958356L28.7152 8.0374C29.6286 7.93015 30.5578 7.875 31.5 7.875C36.4673 7.875 41.0765 9.408 44.8804 12.0267L46.3467 3.71121Z" fill="#D9D9D9"/>
<path d="M46.3467 3.71121C41.9232 1.34294 36.8684 0 31.5 0C28.8288 0 26.2352 0.332495 23.7584 0.958356L28.7152 8.0374C29.6286 7.93015 30.5578 7.875 31.5 7.875C36.4673 7.875 41.0765 9.408 44.8804 12.0267L46.3467 3.71121Z" fill="url(#paint1_linear_24_29)" fill-opacity="0.65"/>
<path d="M55.125 31.5C55.125 30.8306 55.0972 30.1676 55.0426 29.5123L62.2169 24.4887C62.7294 26.7435 63 29.0901 63 31.5C63 36.9541 61.6138 42.0844 59.1746 46.5579L50.8298 45.0865C53.5359 41.2436 55.125 36.5574 55.125 31.5Z" fill="#D9D9D9"/>
<path d="M55.125 31.5C55.125 30.8306 55.0972 30.1676 55.0426 29.5123L62.2169 24.4887C62.7294 26.7435 63 29.0901 63 31.5C63 36.9541 61.6138 42.0844 59.1746 46.5579L50.8298 45.0865C53.5359 41.2436 55.125 36.5574 55.125 31.5Z" fill="url(#paint2_linear_24_29)" fill-opacity="0.65"/>
<path d="M48.9545 47.4213L57.7179 48.9666C54.3528 54.0077 49.5724 58.0236 43.9447 60.4463L39.2967 53.8082C43.033 52.5025 46.3413 50.2845 48.9545 47.4213Z" fill="#D9D9D9"/>
<path d="M48.9545 47.4213L57.7179 48.9666C54.3528 54.0077 49.5724 58.0236 43.9447 60.4463L39.2967 53.8082C43.033 52.5025 46.3413 50.2845 48.9545 47.4213Z" fill="url(#paint3_linear_24_29)" fill-opacity="0.65"/>
<path d="M1.84822 20.8434C0.651878 24.1718 0 27.7598 0 31.5C0 34.8841 0.533646 38.1436 1.52138 41.1988L8.38265 36.3945C8.04997 34.8154 7.875 33.1781 7.875 31.5C7.875 28.2128 8.54637 25.0824 9.75947 22.2384L1.84822 20.8434Z" fill="#D9D9D9"/>
<path d="M1.84822 20.8434C0.651878 24.1718 0 27.7598 0 31.5C0 34.8841 0.533646 38.1436 1.52138 41.1988L8.38265 36.3945C8.04997 34.8154 7.875 33.1781 7.875 31.5C7.875 28.2128 8.54637 25.0824 9.75947 22.2384L1.84822 20.8434Z" fill="url(#paint4_linear_24_29)" fill-opacity="0.65"/>
<path d="M10.9779 19.7877L2.86443 18.3571C6.41824 10.6269 13.0101 4.58249 21.1107 1.75352L25.8697 8.55005C19.5036 10.1065 14.1494 14.2427 10.9779 19.7877Z" fill="#D9D9D9"/>
<path d="M10.9779 19.7877L2.86443 18.3571C6.41824 10.6269 13.0101 4.58249 21.1107 1.75352L25.8697 8.55005C19.5036 10.1065 14.1494 14.2427 10.9779 19.7877Z" fill="url(#paint5_linear_24_29)" fill-opacity="0.65"/>
<path d="M9.11853 39.0838L2.46699 43.7412C5.24845 50.3301 10.2073 55.7751 16.442 59.1746L17.9135 50.8298C13.8575 47.9737 10.7409 43.8734 9.11853 39.0838Z" fill="#D9D9D9"/>
<path d="M9.11853 39.0838L2.46699 43.7412C5.24845 50.3301 10.2073 55.7751 16.442 59.1746L17.9135 50.8298C13.8575 47.9737 10.7409 43.8734 9.11853 39.0838Z" fill="url(#paint6_linear_24_29)" fill-opacity="0.65"/>
<path d="M31.5 63C27.0183 63 22.7552 62.0641 18.8955 60.377L20.3169 52.3158C23.646 54.108 27.4542 55.125 31.5 55.125C33.2596 55.125 34.9742 54.9326 36.624 54.5678L41.4137 61.4083C38.2966 62.441 34.9636 63 31.5 63Z" fill="#D9D9D9"/>
<path d="M31.5 63C27.0183 63 22.7552 62.0641 18.8955 60.377L20.3169 52.3158C23.646 54.108 27.4542 55.125 31.5 55.125C33.2596 55.125 34.9742 54.9326 36.624 54.5678L41.4137 61.4083C38.2966 62.441 34.9636 63 31.5 63Z" fill="url(#paint7_linear_24_29)" fill-opacity="0.65"/>
<path d="M51.7582 34.6586C50.4857 42.8862 44.321 49.4978 36.3298 51.4277L43.6636 29.0276L51.7582 34.6586Z" fill="url(#paint8_linear_24_29)"/>
<path d="M31.5 52C32.763 52 33.9994 51.8857 35.1992 51.6671L38.0368 43H14.527C18.2143 48.4315 24.4404 52 31.5 52Z" fill="url(#paint9_linear_24_29)"/>
<path d="M15.065 19.2447L22.9418 42H13.8895C12.0545 38.9289 11 35.3376 11 31.5C11 26.905 12.5117 22.6632 15.065 19.2447Z" fill="url(#paint10_linear_24_29)"/>
<path d="M19.0395 27.6696L37.9443 12.0333C35.9178 11.3628 33.7513 11 31.5 11C25.1991 11 19.562 13.8427 15.8016 18.3156L19.0395 27.6696Z" fill="url(#paint11_linear_24_29)"/>
<path d="M39.0349 12.429L31.0491 19.0341L43.8819 27.9613L44 28L43.9884 28.0354L51.8999 33.539C51.9661 32.8683 52 32.1881 52 31.5C52 22.8385 46.6284 15.4317 39.0349 12.429Z" fill="url(#paint12_linear_24_29)"/>
<defs>
<linearGradient id="paint0_linear_24_29" x1="63" y1="54.4711" x2="3.74549e-05" y2="9.84606" gradientUnits="userSpaceOnUse">
<stop stop-color="#81249C"/>
<stop offset="1" stop-color="#BB2176"/>
</linearGradient>
<linearGradient id="paint1_linear_24_29" x1="63" y1="54.4711" x2="3.74549e-05" y2="9.84606" gradientUnits="userSpaceOnUse">
<stop stop-color="#81249C"/>
<stop offset="1" stop-color="#BB2176"/>
</linearGradient>
<linearGradient id="paint2_linear_24_29" x1="63" y1="54.4711" x2="3.74549e-05" y2="9.84606" gradientUnits="userSpaceOnUse">
<stop stop-color="#81249C"/>
<stop offset="1" stop-color="#BB2176"/>
</linearGradient>
<linearGradient id="paint3_linear_24_29" x1="63" y1="54.4711" x2="3.74549e-05" y2="9.84606" gradientUnits="userSpaceOnUse">
<stop stop-color="#81249C"/>
<stop offset="1" stop-color="#BB2176"/>
</linearGradient>
<linearGradient id="paint4_linear_24_29" x1="63" y1="54.4711" x2="3.74549e-05" y2="9.84606" gradientUnits="userSpaceOnUse">
<stop stop-color="#81249C"/>
<stop offset="1" stop-color="#BB2176"/>
</linearGradient>
<linearGradient id="paint5_linear_24_29" x1="63" y1="54.4711" x2="3.74549e-05" y2="9.84606" gradientUnits="userSpaceOnUse">
<stop stop-color="#81249C"/>
<stop offset="1" stop-color="#BB2176"/>
</linearGradient>
<linearGradient id="paint6_linear_24_29" x1="63" y1="54.4711" x2="3.74549e-05" y2="9.84606" gradientUnits="userSpaceOnUse">
<stop stop-color="#81249C"/>
<stop offset="1" stop-color="#BB2176"/>
</linearGradient>
<linearGradient id="paint7_linear_24_29" x1="63" y1="54.4711" x2="3.74549e-05" y2="9.84606" gradientUnits="userSpaceOnUse">
<stop stop-color="#81249C"/>
<stop offset="1" stop-color="#BB2176"/>
</linearGradient>
<linearGradient id="paint8_linear_24_29" x1="45.5" y1="46.4999" x2="21" y2="13.4999" gradientUnits="userSpaceOnUse">
<stop stop-color="#965E94"/>
<stop offset="1" stop-color="#B343AE"/>
</linearGradient>
<linearGradient id="paint9_linear_24_29" x1="45.5" y1="46.4999" x2="21" y2="13.4999" gradientUnits="userSpaceOnUse">
<stop stop-color="#965E94"/>
<stop offset="1" stop-color="#B343AE"/>
</linearGradient>
<linearGradient id="paint10_linear_24_29" x1="45.5" y1="46.4999" x2="21" y2="13.4999" gradientUnits="userSpaceOnUse">
<stop stop-color="#965E94"/>
<stop offset="1" stop-color="#B343AE"/>
</linearGradient>
<linearGradient id="paint11_linear_24_29" x1="45.5" y1="46.4999" x2="21" y2="13.4999" gradientUnits="userSpaceOnUse">
<stop stop-color="#965E94"/>
<stop offset="1" stop-color="#B343AE"/>
</linearGradient>
<linearGradient id="paint12_linear_24_29" x1="45.5" y1="46.4999" x2="21" y2="13.4999" gradientUnits="userSpaceOnUse">
<stop stop-color="#965E94"/>
<stop offset="1" stop-color="#B343AE"/>
</linearGradient>
</defs>
</svg>
