<svg width="52" height="52" viewBox="0 0 52 52" fill="none" xmlns="http://www.w3.org/2000/svg">
<path d="M40.8572 20.4286H11.1429C9.09155 20.4286 7.42859 22.0915 7.42859 24.1428V46.4286C7.42859 48.48 9.09155 50.1428 11.1429 50.1428H40.8572C42.9086 50.1428 44.5714 48.48 44.5714 46.4286V24.1428C44.5714 22.0915 42.9086 20.4286 40.8572 20.4286Z" stroke="white" stroke-width="3.71429" stroke-linecap="round" stroke-linejoin="round"/>
<path d="M39 20.4286V14.8571C39 11.4093 37.6305 8.10272 35.1924 5.66477C32.7544 3.22679 29.4478 1.85715 26 1.85715C22.5522 1.85715 19.2456 3.22679 16.8076 5.66477C14.3696 8.10272 13 11.4093 13 14.8571V20.4286" stroke="white" stroke-width="3.71429" stroke-linecap="round" stroke-linejoin="round"/>
</svg>
