<svg width="36" height="36" viewBox="0 0 36 36" fill="none" xmlns="http://www.w3.org/2000/svg">
<g clip-path="url(#clip0_58_97)">
<path d="M17.9999 20.5714C21.5503 20.5714 24.4284 17.6932 24.4284 14.1428C24.4284 10.5924 21.5503 7.71423 17.9999 7.71423C14.4495 7.71423 11.5713 10.5924 11.5713 14.1428C11.5713 17.6932 14.4495 20.5714 17.9999 20.5714Z" stroke="white" stroke-width="2.57143" stroke-linecap="round" stroke-linejoin="round"/>
<path d="M7.01978 30.6C8.16725 28.7164 9.77997 27.1597 11.7029 26.0797C13.6258 24.9994 15.7942 24.432 17.9998 24.432C20.2053 24.432 22.3737 24.9994 24.2967 26.0797C26.2197 27.1597 27.8322 28.7164 28.9798 30.6" stroke="white" stroke-width="2.57143" stroke-linecap="round" stroke-linejoin="round"/>
<path d="M17.9999 34.7143C27.2311 34.7143 34.7142 27.2312 34.7142 18C34.7142 8.76895 27.2311 1.28571 17.9999 1.28571C8.76889 1.28571 1.28564 8.76895 1.28564 18C1.28564 27.2312 8.76889 34.7143 17.9999 34.7143Z" stroke="white" stroke-width="2.57143" stroke-linecap="round" stroke-linejoin="round"/>
</g>
<defs>
<clipPath id="clip0_58_97">
<rect width="36" height="36" fill="white"/>
</clipPath>
</defs>
</svg>
